<svg version="1.2" xmlns="http://www.w3.org/2000/svg" viewBox="0 0 1000 1000" width="1000" height="1000">
	<title>2155222-ai</title>
	<style>
		.s0 { fill: #e5f2f6 } 
		.s1 { fill: #d0dbed } 
		.s2 { fill: #2f406e } 
		.s3 { fill: #ffffff } 
		.s4 { fill: #96afd6 } 
		.s5 { fill: #a6bbdc } 
		.s6 { opacity: .5;mix-blend-mode: multiply;fill: #b0c3e0 } 
		.s7 { fill: #c0cfe7 } 
		.s8 { fill: #6e7a99 } 
		.s9 { fill: none;stroke: #b5c7e2;stroke-width: 4 } 
		.s10 { fill: none;stroke: #e06c6c;stroke-linecap: round;stroke-width: 6 } 
		.s11 { fill: #4e5d83 } 
		.s12 { fill: #e7f3f7 } 
		.s13 { fill: #fabba0 } 
		.s14 { fill: #fbc9b3 } 
		.s15 { fill: #e06c6c } 
		.s16 { fill: #d3eaf0 } 
		.s17 { fill: #a0b7da } 
		.s18 { fill: #b5c7e2 } 
		.s19 { fill: #fcd7c7 } 
		.s20 { mix-blend-mode: multiply;fill: #dcdfe6 } 
	</style>
	<g id="BACKGROUND">
		<path id="&lt;Path&gt;" class="s0" d="m167.9 784.4c1.9-5.9 3.3-12.2 2.3-18.4-1.3-8.7-7-16.2-13.8-21.8-17.3-14.4-40.4-18.9-61.7-26-21.3-7.2-43.6-19.7-50-41.3-5.1-16.9 1-35.1 8.6-51.1 16.1-33.2 59.7-62.4 76.8-95.1 17.2-32.7 28.2-71.3 17.2-106.5-9.5-30.6-51-61.5-60.2-92.1-12.6-42.1 3.2-80.9 30.8-115.1 41.6-51.4 107.7-87.3 173-76.8 39 6.2 74.9 28.1 114.3 29.8 39.3 1.7 76.3-16.8 112.6-31.9 36.4-15.2 77.7-27.4 114.5-13.3 42.5 16.3 66.3 63 106.7 84 20 10.5 42.9 14 63.5 23.2 34.6 15.5 61 47.1 73.4 83 12.4 35.9 11.5 75.6 1 112.1-9.9 33.9-27.6 64.9-40 98-12.5 33-19.4 70.3-7 103.3 6.9 18.3 19.2 33.9 30.3 49.9 16.3 23.4 30.7 49.1 34.2 77.4 3.6 28.3-5.9 59.6-29.4 75.8-18.9 13-43.3 14.4-66.3 15.3-76.7 3-153.5 6.1-230.1 1-39.2-2.5-78.4-7.2-117.6-5.4-32.8 1.5-59.9 6.6-99.1 6.1-41.7-0.6-201.4 7.3-212.9-3.3-11.9-11 24.5-47 28.9-60.8z"/>
		<path id="&lt;Path&gt;" class="s0" d="m129.7 480.7c-6.9 15.5-24.5 25.6-41.3 23.1-16.7-2.4-30.9-17.4-31.9-34.3-0.3-5.9 0.8-11.8 2.5-17.4 2.1-6.9 5.2-13.8 10.2-19 6.3-6.6 15.7-10.3 24.9-9.8 27.9 1.7 47.1 31.7 35.6 57.4z"/>
		<path id="&lt;Path&gt;" class="s0" d="m820.1 159c-8.4 18.8-29.8 31-50.1 28.1-20.4-3-37.6-21.2-38.8-41.8-0.4-7.1 1-14.2 3.1-21.1 2.5-8.4 6.2-16.7 12.3-23 7.7-8.1 19.1-12.6 30.2-11.9 34 2.1 57.3 38.4 43.3 69.7z"/>
		<path id="&lt;Path&gt;" class="s0" d="m907.3 609.1c-6.1 13.7-21.7 22.6-36.5 20.4-14.8-2.1-27.3-15.4-28.1-30.3-0.3-5.2 0.7-10.4 2.2-15.4 1.8-6.1 4.5-12.1 8.9-16.8 5.7-5.8 13.9-9.1 22-8.6 24.7 1.5 41.6 27.9 31.5 50.7z"/>
	</g>
	<g id="OBJECTS">
		<path id="&lt;Path&gt;" class="s1" d="m895.6 854.1h-791.2c-4.1 0-7.4-3.3-7.4-7.4 0-4.1 3.3-7.5 7.4-7.5h791.2c4.1 0 7.4 3.4 7.4 7.5 0 4.1-3.3 7.4-7.4 7.4z"/>
		<g id="&lt;Group&gt;">
			<g id="&lt;Group&gt;">
				<path id="&lt;Path&gt;" class="s2" d="m635.7 845.1h-418.9c-17.8 0-32.2-14.5-32.2-32.3v-612.9c0-17.8 14.4-32.3 32.2-32.3h418.9c17.8 0 32.3 14.5 32.3 32.3v612.9c0 17.8-14.5 32.3-32.3 32.3z"/>
				<path id="&lt;Path&gt;" class="s3" d="m639.3 787.6h-426.1v-591.1h426.1z"/>
				<g id="&lt;Group&gt;">
					<path id="&lt;Compound Path&gt;" fill-rule="evenodd" class="s4" d="m574.9 206.3v10h-297.2v-10c0-31.4 25.4-56.8 56.8-56.8h34.4c3.1-24.8 27.6-44.2 57.4-44.2 29.8 0 54.3 19.4 57.3 44.2h34.5c31.3 0 56.8 25.4 56.8 56.8zm-129.4-61.2c0-10.7-8.6-19.3-19.2-19.3-10.7 0-19.3 8.6-19.3 19.3 0 10.6 8.6 19.2 19.3 19.2 10.6 0 19.2-8.6 19.2-19.2z"/>
					<g id="&lt;Group&gt;">
						<path id="&lt;Path&gt;" class="s5" d="m282.7 216.3l31.7-63.2c6.2-2.3 13-3.6 20.1-3.6h24.6l-33.6 66.8z"/>
						<path id="&lt;Path&gt;" class="s5" d="m481.1 216.3l33.6-66.8h3.4c12.7 0 24.4 4.1 33.8 11.2l-27.9 55.6z"/>
						<path id="&lt;Path&gt;" class="s5" d="m552.2 216.3h-15.2l23.8-47.4c3.4 3.9 6.4 8.3 8.6 13.1z"/>
					</g>
					<path id="&lt;Path&gt;" class="s6" d="m574.9 208v8.3h-297.2v-8.3z"/>
				</g>
			</g>
			<g id="&lt;Group&gt;">
				<path id="&lt;Path&gt;" class="s7" d="m550.4 407.5h-215.2v-3.3h215.2z"/>
				<path id="&lt;Path&gt;" class="s7" d="m550.4 422.4h-215.2v-3.2h215.2z"/>
				<path id="&lt;Path&gt;" class="s7" d="m550.4 437.4h-215.2v-3.3h215.2z"/>
				<g id="&lt;Group&gt;">
					<path id="&lt;Path&gt;" class="s8" d="m447 393.2h-112.2v-10.7h112.2z"/>
				</g>
				<g id="&lt;Group&gt;">
					<g id="&lt;Group&gt;">
						<path id="&lt;Path&gt;" class="s9" d="m305.1 437.1h-54.6v-54.6h54.6z"/>
					</g>
					<path id="&lt;Path&gt;" class="s10" d="m316.6 367.8l-42.3 60.1-16.6-14.8"/>
				</g>
			</g>
			<g id="&lt;Group&gt;">
				<path id="&lt;Path&gt;" class="s7" d="m550.4 592.6h-215.2v-3.2h215.2z"/>
				<path id="&lt;Path&gt;" class="s7" d="m550.4 607.6h-215.2v-3.3h215.2z"/>
				<path id="&lt;Path&gt;" class="s7" d="m550.4 622.5h-215.2v-3.2h215.2z"/>
				<g id="&lt;Group&gt;">
					<path id="&lt;Path&gt;" class="s8" d="m456.8 578.4h-122v-10.7h122z"/>
					<path id="&lt;Path&gt;" class="s8" d="m522.9 567.7v10.7h-55.8v-10.7z"/>
				</g>
				<g id="&lt;Group&gt;">
					<g id="&lt;Group&gt;">
						<path id="&lt;Path&gt;" class="s9" d="m305.1 622.5h-54.6v-54.6h54.6z"/>
					</g>
					<path id="&lt;Path&gt;" class="s10" d="m316.6 553.1l-42.3 60.2-16.6-14.8"/>
				</g>
			</g>
			<g id="&lt;Group&gt;">
				<path id="&lt;Path&gt;" class="s7" d="m550.4 685.2h-215.2v-3.2h215.2z"/>
				<path id="&lt;Path&gt;" class="s7" d="m550.4 700.2h-215.2v-3.3h215.2z"/>
				<path id="&lt;Path&gt;" class="s7" d="m550.4 715.1h-215.2v-3.2h215.2z"/>
				<g id="&lt;Group&gt;">
					<path id="&lt;Path&gt;" class="s8" d="m399.5 671h-64.7v-10.7h64.7z"/>
				</g>
				<g id="&lt;Group&gt;">
					<g id="&lt;Group&gt;">
						<path id="&lt;Path&gt;" class="s9" d="m305.1 715.1h-54.6v-54.6h54.6z"/>
					</g>
					<path id="&lt;Path&gt;" class="s10" d="m316.6 645.7l-42.3 60.2-16.6-14.9"/>
				</g>
			</g>
			<g id="&lt;Group&gt;">
				<g id="&lt;Group&gt;">
					<path id="&lt;Path&gt;" class="s9" d="m305.1 344.6h-54.6v-54.6h54.6z"/>
					<path id="&lt;Path&gt;" class="s7" d="m550.4 314.9h-215.2v-3.2h215.2z"/>
					<path id="&lt;Path&gt;" class="s7" d="m550.4 329.8h-215.2v-3.2h215.2z"/>
					<path id="&lt;Path&gt;" class="s7" d="m550.4 344.8h-215.2v-3.3h215.2z"/>
					<g id="&lt;Group&gt;">
						<path id="&lt;Path&gt;" class="s8" d="m414.3 300.6h-79.5v-10.6h79.5z"/>
						<path id="&lt;Path&gt;" class="s8" d="m522.9 290v10.6h-97.9v-10.6z"/>
					</g>
				</g>
				<path id="&lt;Path&gt;" class="s10" d="m316.6 275.2l-42.3 60.2-16.6-14.9"/>
			</g>
			<g id="&lt;Group&gt;">
				<g id="&lt;Group&gt;">
					<path id="&lt;Path&gt;" class="s7" d="m550.4 500h-215.2v-3.2h215.2z"/>
					<path id="&lt;Path&gt;" class="s7" d="m550.4 515h-215.2v-3.2h215.2z"/>
					<path id="&lt;Path&gt;" class="s7" d="m550.4 529.9h-215.2v-3.2h215.2z"/>
					<g id="&lt;Group&gt;">
						<path id="&lt;Path&gt;" class="s8" d="m373.1 485.8h-38.3v-10.7h38.3z"/>
						<path id="&lt;Path&gt;" class="s8" d="m474.6 475.1v10.7h-88.8v-10.7z"/>
					</g>
				</g>
				<g id="&lt;Group&gt;">
					<g id="&lt;Group&gt;">
						<path id="&lt;Path&gt;" class="s9" d="m305.1 529.9h-54.6v-54.6h54.6z"/>
					</g>
					<path id="&lt;Path&gt;" class="s10" d="m316.6 460.6l-42.3 60.1-16.6-14.8"/>
				</g>
			</g>
		</g>
		<g id="&lt;Group&gt;">
			<g id="&lt;Group&gt;">
				<path id="&lt;Path&gt;" class="s11" d="m745.2 824.9c0 0 4 18 2.2 19.4-1.8 1.3-45.8 4.2-45 0.4 0.9-3.8 24.1-15.3 24.1-15.3z"/>
				<path id="&lt;Path&gt;" class="s11" d="m840.3 829.1c0 0 23.3 11.2 24.3 14.9 0.9 3.8-43.2 1.6-45 0.3-1.8-1.3 2-19.4 2-19.4z"/>
				<path id="&lt;Path&gt;" class="s4" d="m731.6 407.3c0 0-17.6 50.9-51.3 69.5-31.8 17.5-66.6-15.3-66.6-15.3l-5.4-27.2c0 0 8.5 1.4 27.2 7.2 18.7 5.8 31.6 4.1 47.1-12.5 14.1-15.1 25.4-36.4 30.3-49.6 3-8.1 6-11.2 6-11.2z"/>
				<path id="&lt;Path&gt;" class="s2" d="m821.5 532.9l20 296.7-20.9 0.9-51.2-269.3-23.1 268.8h-21.4l-5.8-293.3z"/>
				<path id="&lt;Path&gt;" class="s12" d="m783.9 353.6c0 0 28.4 5.2 38.2 13.2 9.8 8.1-0.1 61.8-0.1 61.8h-96.2c0 0-1.8-50.9-0.1-57.8 1.5-5.9 4.2-11.1 9.8-13.8 5.5-2.6 16.6-5 22.8-5.2 6.2-0.2 25.6 1.8 25.6 1.8z"/>
				<path id="&lt;Path&gt;" class="s13" d="m782.3 309.1l0.3 47.2-22.5 17.2-10.4-15.1 1.5-28.5z"/>
				<path id="&lt;Path&gt;" class="s2" d="m772.6 273c0-1.3-26.7 0-42-6.9-15.4-6.9-12.6-23.8-4.6-28.7 13-7.9 49.8-0.8 61.8 13.3 9.8 11.5 6.4 33.8 3.3 44.8-2.9 10.1-10.5 14.8-10.5 14.8-6-1-8-36-8-37.3z"/>
				<path id="&lt;Path&gt;" class="s14" d="m776.1 268.5c5.4 5.3-0.3 20.7-0.3 20.7 0 0 10.6-6.1 12.8 1.5 2.6 9.5-6.8 10.4-6.8 10.4 0 0 1.4 6.8 0.8 11.6-0.6 5.4-3.2 9.9-14.5 17-11.3 7.2-28.2 14.4-37.4 0.8-9.2-13.7-2.8-65.7-2.8-65.7 0 0 42.9-1.7 48.2 3.7z"/>
				<path id="&lt;Compound Path&gt;" fill-rule="evenodd" class="s2" d="m790.8 287.9c0 0.6-0.5 1.1-1.1 1.1 0 0-21.1-0.1-21.1-0.1-0.1 5.4-1.2 11.1-12 11.1-10.8 0-11.9-5.7-12-11.1h-1.8c-0.1 5.4-1.2 11.1-12 11.1q-1.3 0-2.5-0.2-1.2-0.1-2.3-0.3-0.9-0.2-1.9-0.6-0.8-0.3-1.5-0.8-0.6-0.4-1.2-0.9-0.5-0.5-0.9-1.1-0.4-0.5-0.7-1.2-0.3-0.6-0.4-1.3-0.2-0.6-0.4-1.3-0.1-0.7-0.1-1.5-0.1-0.7-0.1-1.4c0-0.4 0-0.9 0.1-1.4 0.1-0.5 0.4-1.3 1.1-1.3 0 0 69.7 0.1 69.7 0.1 0.6 0 1.1 0.5 1.1 1.1zm-24.4 1.3h-19.6c0 4.9 1.1 8.6 9.8 8.6 8.7 0 9.7-3.7 9.8-8.6zm-25.8 0h-19.6c0 4.9 1.1 8.6 9.8 8.6 8.7 0 9.7-3.7 9.8-8.6z"/>
				<path id="&lt;Path&gt;" class="s15" d="m767 368.8c-0.3 3.6-4.9 9.2-4.9 9.2l5.4 53.7-16.9 17.8-8-25 15-47.6c0 0-1.6-4.5-1.9-7.4-0.3-3 5.5-7.1 5.5-7.1 0 0 6.1 2.8 5.8 6.4z"/>
				<path id="&lt;Path&gt;" class="s16" d="m761.4 362.5l21.2-18.2 9.7 9.5-18.2 25.5z"/>
				<path id="&lt;Path&gt;" class="s17" d="m740.5 354l16.3 50.7 37.1-49.3c0 0 27.9 7 35 14.6 4.5 4.7-7.8 94.6-7.4 115.1 0.3 14.7 3 57.3 3 57.3l-105.1 0.5c0 0-4.7-165.3-3.6-169.8 1.1-4.4 14.5-17.5 24.7-19.1z"/>
				<path id="&lt;Path&gt;" class="s17" d="m815.7 362.7c0 0 6.3 2.1 16 9.2 15.3 11.1 35 33.7 42.9 53.5 10.5 26.1 2.8 50.3-13.3 71.9-16.2 21.5-31.2 29.6-31.2 29.6l-3-29.6c0 0 26.2-24.7 24.1-48.7-1.8-20.7-48.4-44.5-48.4-44.5z"/>
				<path id="&lt;Path&gt;" class="s18" d="m755 413.9l-17.3-59.2c0.9-0.3 1.9-0.6 2.8-0.7l16.3 50.7 37.1-49.3c0 0 1.2 0.5 3.1 1.4z"/>
				<path id="&lt;Path&gt;" class="s16" d="m748.9 378.6l-7.6-23.9 8.4-8 11.3 16z"/>
				<path id="&lt;Path&gt;" class="s13" d="m831.1 526.6c-0.6 1.2-1.6 2.4-3 2.5-0.7 0.1-1.4-0.2-2-0.5-5.8-2.5-10.3-7.1-14.7-11.7-2.1-2.3-4.3-4.8-4.4-7.9 0-2.2 1.1-4.3 2.3-6.1 2.7-3.6 6.2-6.6 10.3-8.4 1.8-0.8 3.8-1.4 5.5-0.6 2.1 0.8 3.1 3.2 3.7 5.4 2.2 7.3 5.9 19.9 2.3 27.3z"/>
				<path id="&lt;Path&gt;" class="s3" d="m730.4 310.9h31.2c0 0-2.7 10.7-16.6 11.3-14 0.6-14.6-11.3-14.6-11.3z"/>
			</g>
			<g id="&lt;Group&gt;">
				<g id="&lt;Group&gt;">
					<path id="&lt;Path&gt;" class="s19" d="m651.9 309.4l-30.8 2.4-30.7 2.5 22.4-80.4c0.6-2 3.1-2.2 4-0.3z"/>
					<path id="&lt;Path&gt;" class="s15" d="m694.8 841.6l-61.5 5-43.1-533.9 61.6-4.9z"/>
					<path id="&lt;Path&gt;" class="s16" d="m692.7 815.6l-61.5 4.9-1.4-17.1 61.5-5z"/>
					<path id="&lt;Path&gt;" class="s16" d="m689.9 781l-61.5 5-1.4-17.2 61.5-4.9z"/>
					<path id="&lt;Path&gt;" class="s15" d="m606.1 257.9l6.7-24c0.6-2 3.1-2.2 4-0.3l10.5 22.6z"/>
					<path id="&lt;Path&gt;" class="s20" d="m651.8 307.8l43 533.8-12.9 1.1-43-533.9h-0.6l-23.5-76.5c0.8 0 1.6 0.4 2 1.3l34.4 74.2z"/>
				</g>
				<path id="&lt;Path&gt;" class="s13" d="m590.6 457c-1.4-4.5 1.5-9.2 3.3-9.9 4.2-1.5 8.8-1.9 13.2-1 2.2 0.4 4.4 1.1 5.9 2.7 2.1 2.3 2.3 5.7 2.3 8.7 0.1 6.3 0 12.8-2.3 18.6-0.3 0.7-0.6 1.4-1.2 1.8-1 0.9-2.6 0.8-3.9 0.2-9.6-4.1-14.6-12.6-17.3-21.1z"/>
			</g>
		</g>
	</g>
</svg>